# Blender v2.77 (sub 0) OBJ File: 'misc.blend'
# www.blender.org
o Cylinder
v 0.000000 -4.457623 -4.457623
v 0.000000 4.457623 -4.457623
v 0.869639 -4.457623 -4.371971
v 0.869639 4.457623 -4.371971
v 1.705859 -4.457623 -4.118307
v 1.705859 4.457623 -4.118307
v 2.476523 -4.457623 -3.706378
v 2.476523 4.457623 -3.706378
v 3.152016 -4.457623 -3.152016
v 3.152016 4.457623 -3.152016
v 3.706379 -4.457623 -2.476523
v 3.706379 4.457623 -2.476523
v 4.118307 -4.457623 -1.705859
v 4.118307 4.457623 -1.705859
v 4.371971 -4.457623 -0.869639
v 4.371971 4.457623 -0.869639
v 4.457623 -4.457623 -0.000000
v 4.457623 4.457623 -0.000000
v 4.371972 -4.457623 0.869639
v 4.371972 4.457623 0.869639
v 4.118307 -4.457623 1.705858
v 4.118307 4.457623 1.705858
v 3.706379 -4.457623 2.476523
v 3.706379 4.457623 2.476523
v 3.152016 -4.457623 3.152016
v 3.152016 4.457623 3.152016
v 2.476523 -4.457623 3.706379
v 2.476523 4.457623 3.706379
v 1.705858 -4.457623 4.118308
v 1.705858 4.457623 4.118308
v 0.869638 -4.457623 4.371972
v 0.869638 4.457623 4.371972
v -0.000001 -4.457623 4.457623
v -0.000001 4.457623 4.457623
v -0.869641 -4.457623 4.371971
v -0.869641 4.457623 4.371971
v -1.705861 -4.457623 4.118306
v -1.705861 4.457623 4.118306
v -2.476525 -4.457623 3.706377
v -2.476525 4.457623 3.706377
v -3.152018 -4.457623 3.152014
v -3.152018 4.457623 3.152014
v -3.706380 -4.457623 2.476520
v -3.706380 4.457623 2.476520
v -4.118309 -4.457623 1.705855
v -4.118309 4.457623 1.705855
v -4.371972 -4.457623 0.869635
v -4.371972 4.457623 0.869635
v -4.457623 -4.457623 -0.000004
v -4.457623 4.457623 -0.000004
v -4.371971 -4.457623 -0.869644
v -4.371971 4.457623 -0.869644
v -4.118305 -4.457623 -1.705863
v -4.118305 4.457623 -1.705863
v -3.706375 -4.457623 -2.476527
v -3.706375 4.457623 -2.476527
v -3.152012 -4.457623 -3.152020
v -3.152012 4.457623 -3.152020
v -2.476518 -4.457623 -3.706382
v -2.476518 4.457623 -3.706382
v -1.705853 -4.457623 -4.118309
v -1.705853 4.457623 -4.118309
v -0.869632 -4.457623 -4.371973
v -0.869632 4.457623 -4.371973
vt 0.8125 0.4219
vt 0.7773 0.6484
vt 0.7773 0.4219
vt 0.8398 0.4219
vt 0.8125 0.6484
vt 0.8711 0.4219
vt 0.8398 0.6484
vt 0.9062 0.4219
vt 0.8711 0.6484
vt 0.9336 0.4219
vt 0.9062 0.6484
vt 0.9609 0.4219
vt 0.9336 0.6484
vt 1.0000 0.4219
vt 0.9609 0.6484
vt 0.0391 0.4219
vt 0.0000 0.6484
vt 0.0000 0.4219
vt 0.0664 0.4219
vt 0.0391 0.6484
vt 0.0938 0.4219
vt 0.0664 0.6484
vt 0.1289 0.4219
vt 0.0938 0.6484
vt 0.1602 0.4219
vt 0.1289 0.6484
vt 0.1875 0.4219
vt 0.1602 0.6484
vt 0.2227 0.4219
vt 0.1875 0.6484
vt 0.2539 0.4219
vt 0.2227 0.6484
vt 0.2812 0.4219
vt 0.2539 0.6484
vt 0.3164 0.4219
vt 0.2812 0.6484
vt 0.3477 0.4219
vt 0.3164 0.6484
vt 0.3711 0.4219
vt 0.3477 0.6484
vt 0.4062 0.4219
vt 0.3711 0.6484
vt 0.4375 0.4219
vt 0.4062 0.6484
vt 0.4688 0.4219
vt 0.4375 0.6484
vt 0.5000 0.4219
vt 0.4688 0.6484
vt 0.5312 0.4219
vt 0.5000 0.6484
vt 0.5625 0.4219
vt 0.5312 0.6484
vt 0.5938 0.4219
vt 0.5625 0.6484
vt 0.6289 0.4219
vt 0.5938 0.6484
vt 0.6523 0.4219
vt 0.6289 0.6484
vt 0.6836 0.4219
vt 0.6523 0.6484
vt 0.7188 0.4219
vt 0.6836 0.6484
vt 0.7461 0.4219
vt 0.7188 0.6484
vt 0.7461 0.6484
vt 1.0000 0.6484
vn -0.1951 0.0000 0.9808
vn 0.0000 0.0000 1.0000
vn -0.3827 0.0000 0.9239
vn -0.5556 0.0000 0.8314
vn -0.7071 0.0000 0.7071
vn -0.8314 0.0000 0.5556
vn -0.9239 0.0000 0.3827
vn -0.9808 0.0000 0.1951
vn -1.0000 0.0000 0.0000
vn -0.9808 0.0000 -0.1951
vn -0.9239 0.0000 -0.3827
vn -0.8314 0.0000 -0.5556
vn -0.7071 0.0000 -0.7071
vn -0.5556 0.0000 -0.8314
vn -0.3827 0.0000 -0.9239
vn -0.1951 0.0000 -0.9808
vn 0.0000 0.0000 -1.0000
vn 0.1951 0.0000 -0.9808
vn 0.3827 0.0000 -0.9239
vn 0.5556 0.0000 -0.8314
vn 0.7071 0.0000 -0.7071
vn 0.8314 0.0000 -0.5556
vn 0.9239 0.0000 -0.3827
vn 0.9808 0.0000 -0.1951
vn 1.0000 0.0000 0.0000
vn 0.9808 0.0000 0.1951
vn 0.9239 0.0000 0.3827
vn 0.8314 0.0000 0.5556
vn 0.7071 0.0000 0.7071
vn 0.5556 0.0000 0.8314
vn 0.3827 0.0000 0.9239
vn 0.1951 0.0000 0.9808
s 1
f 3/1/1 2/2/2 1/3/2
f 5/4/3 4/5/1 3/1/1
f 7/6/4 6/7/3 5/4/3
f 9/8/5 8/9/4 7/6/4
f 11/10/6 10/11/5 9/8/5
f 13/12/7 12/13/6 11/10/6
f 15/14/8 14/15/7 13/12/7
f 17/16/9 16/17/8 15/18/8
f 19/19/10 18/20/9 17/16/9
f 21/21/11 20/22/10 19/19/10
f 23/23/12 22/24/11 21/21/11
f 25/25/13 24/26/12 23/23/12
f 27/27/14 26/28/13 25/25/13
f 29/29/15 28/30/14 27/27/14
f 31/31/16 30/32/15 29/29/15
f 33/33/17 32/34/16 31/31/16
f 35/35/18 34/36/17 33/33/17
f 37/37/19 36/38/18 35/35/18
f 39/39/20 38/40/19 37/37/19
f 41/41/21 40/42/20 39/39/20
f 43/43/22 42/44/21 41/41/21
f 45/45/23 44/46/22 43/43/22
f 47/47/24 46/48/23 45/45/23
f 49/49/25 48/50/24 47/47/24
f 51/51/26 50/52/25 49/49/25
f 53/53/27 52/54/26 51/51/26
f 55/55/28 54/56/27 53/53/27
f 57/57/29 56/58/28 55/55/28
f 59/59/30 58/60/29 57/57/29
f 61/61/31 60/62/30 59/59/30
f 63/63/32 62/64/31 61/61/31
f 1/3/2 64/65/32 63/63/32
f 3/1/1 4/5/1 2/2/2
f 5/4/3 6/7/3 4/5/1
f 7/6/4 8/9/4 6/7/3
f 9/8/5 10/11/5 8/9/4
f 11/10/6 12/13/6 10/11/5
f 13/12/7 14/15/7 12/13/6
f 15/14/8 16/66/8 14/15/7
f 17/16/9 18/20/9 16/17/8
f 19/19/10 20/22/10 18/20/9
f 21/21/11 22/24/11 20/22/10
f 23/23/12 24/26/12 22/24/11
f 25/25/13 26/28/13 24/26/12
f 27/27/14 28/30/14 26/28/13
f 29/29/15 30/32/15 28/30/14
f 31/31/16 32/34/16 30/32/15
f 33/33/17 34/36/17 32/34/16
f 35/35/18 36/38/18 34/36/17
f 37/37/19 38/40/19 36/38/18
f 39/39/20 40/42/20 38/40/19
f 41/41/21 42/44/21 40/42/20
f 43/43/22 44/46/22 42/44/21
f 45/45/23 46/48/23 44/46/22
f 47/47/24 48/50/24 46/48/23
f 49/49/25 50/52/25 48/50/24
f 51/51/26 52/54/26 50/52/25
f 53/53/27 54/56/27 52/54/26
f 55/55/28 56/58/28 54/56/27
f 57/57/29 58/60/29 56/58/28
f 59/59/30 60/62/30 58/60/29
f 61/61/31 62/64/31 60/62/30
f 63/63/32 64/65/32 62/64/31
f 1/3/2 2/2/2 64/65/32
